<svg width="24" height="24" viewBox="0 0 24 24" fill="none" xmlns="http://www.w3.org/2000/svg">
  <path
    fill-rule="evenodd"
    clip-rule="evenodd"
    fill="currentColor"
    d="M12.8775 4.4545C13.3169 4.89384 13.3169 5.60616 12.8775 6.0455L6.92302 12L12.8775 17.9545C13.3169 18.3938 13.3169 19.1062 12.8775 19.5455C12.4382 19.9848 11.7259 19.9848 11.2865 19.5455L4.53654 12.7955C4.0972 12.3562 4.0972 11.6438 4.53654 11.2045L11.2865 4.4545C11.7259 4.01517 12.4382 4.01517 12.8775 4.4545Z"
  />
  <path
    fill-rule="evenodd"
    clip-rule="evenodd"
    fill="currentColor"
    d="M5.14453 12C5.14453 11.3787 5.64821 10.875 6.26953 10.875H19.957C20.5784 10.875 21.082 11.3787 21.082 12C21.082 12.6213 20.5784 13.125 19.957 13.125H6.26953C5.64821 13.125 5.14453 12.6213 5.14453 12Z"
  />
</svg>
