<svg width="79" height="79" viewBox="0 0 79 79" fill="none" xmlns="http://www.w3.org/2000/svg">
<g id="&#229;&#156;&#150;&#229;&#177;&#164;_1">
<g id="Group">
<path id="Vector" d="M13.4927 14.7366C17.4769 14.7366 20.7229 11.4956 20.7229 7.50637C20.7229 3.51713 17.4819 0.28125 13.4927 0.28125C9.50346 0.28125 6.26758 3.52219 6.26758 7.50637C6.26758 11.4906 9.50852 14.7366 13.4927 14.7366ZM13.4927 2.80929C16.0865 2.80929 18.1948 4.91767 18.1948 7.50637C18.1948 10.0951 16.0865 12.2085 13.4927 12.2085C10.8989 12.2085 8.79561 10.1001 8.79561 7.50637C8.79561 4.91261 10.904 2.80929 13.4927 2.80929Z" fill="currentColor"/>
<path id="Vector_2" d="M59.1844 38.0803L63.7551 7.43547C63.8107 7.07143 63.7046 6.70234 63.4619 6.42425C63.2242 6.14617 62.8703 5.98438 62.5063 5.98438H40.6186C39.9916 5.98438 39.4607 6.44448 39.3697 7.06132L36.3007 27.6446C36.1995 28.3373 36.6748 28.9794 37.3624 29.0805C38.0501 29.1816 38.6972 28.7064 38.7984 28.0187L41.7056 8.51241H61.04L56.8485 36.6292H42.373C41.6753 36.6292 41.109 37.1955 41.109 37.8932C41.109 38.591 41.6753 39.1573 42.373 39.1573H57.9406C58.5676 39.1573 59.0985 38.6972 59.1895 38.0803H59.1844Z" fill="currentColor"/>
<path id="Vector_3" d="M36.2093 47.5202H42.135C42.8328 47.5202 43.3991 46.9539 43.3991 46.2562C43.3991 45.5585 42.8328 44.9922 42.135 44.9922H36.2093C35.5116 44.9922 34.9453 45.5585 34.9453 46.2562C34.9453 46.9539 35.5116 47.5202 36.2093 47.5202Z" fill="currentColor"/>
<path id="Vector_4" d="M36.2093 53.3405H53.5567C54.2544 53.3405 54.8207 52.7743 54.8207 52.0765C54.8207 51.3788 54.2544 50.8125 53.5567 50.8125H36.2093C35.5116 50.8125 34.9453 51.3788 34.9453 52.0765C34.9453 52.7743 35.5116 53.3405 36.2093 53.3405Z" fill="currentColor"/>
<path id="Vector_5" d="M74.6566 68.9099H68.4629L68.1595 38.8263L72.9426 6.65955C73.1499 5.27419 72.7454 3.87366 71.8303 2.81694C70.9151 1.75517 69.5904 1.14844 68.1899 1.14844H39.3298C36.9686 1.14844 34.926 2.90795 34.5771 5.24385L31.2351 27.6524C31.1339 28.345 31.6092 28.9872 32.2968 29.0883C32.9895 29.1894 33.6316 28.7141 33.7328 28.0265L37.0748 5.618C37.2417 4.51072 38.2074 3.67647 39.3248 3.67647H68.1848C68.8472 3.67647 69.4741 3.96467 69.9089 4.46522C70.3438 4.96577 70.5359 5.63317 70.4348 6.28541L65.6366 38.5532C65.6265 38.619 65.6214 38.6847 65.6214 38.7504L65.9399 70.184C65.945 70.8767 66.5113 71.4329 67.204 71.4329H74.6515C75.1521 71.4329 75.5616 71.8424 75.5616 72.343V74.8457C75.5616 75.3463 75.1521 75.7558 74.6515 75.7558H32.489V43.8773C32.489 43.1796 31.9227 42.6133 31.225 42.6133C30.5272 42.6133 29.9609 43.1796 29.9609 43.8773V77.0198C29.9609 77.7176 30.5272 78.2839 31.225 78.2839H74.6617C76.5577 78.2839 78.0998 76.7417 78.0998 74.8457V72.343C78.0998 70.4469 76.5577 68.9048 74.6617 68.9048L74.6566 68.9099Z" fill="currentColor"/>
<path id="Vector_6" d="M34.5062 39.9956C36.6045 39.9956 38.3084 38.2917 38.3084 36.1934C38.3084 34.0951 36.6045 32.3912 34.5062 32.3912H26.5227V28.5284V23.0021C26.5227 19.3719 23.4536 16.4141 19.6818 16.4141H7.30961C3.53778 16.4141 0.46875 19.3668 0.46875 23.0021V28.5284C0.46875 28.6093 0.478862 28.6902 0.49403 28.766V41.3354C0.49403 43.4337 2.19793 45.1376 4.2962 45.1376C4.79675 45.1376 5.28719 45.0314 5.73718 44.8393V74.478C5.73718 76.5762 7.44107 78.2801 9.53934 78.2801H11.0562C12.032 78.2801 12.9219 77.9111 13.5943 77.3094C14.2668 77.9161 15.1566 78.2801 16.1325 78.2801H17.6493C19.7475 78.2801 21.4514 76.5762 21.4514 74.478V39.7731C21.8509 39.9147 22.2756 39.9956 22.7256 39.9956H34.5113H34.5062ZM21.4464 36.1985V28.5284C21.4464 27.8307 20.8801 27.2644 20.1824 27.2644C19.4846 27.2644 18.9184 27.8307 18.9184 28.5284V74.483C18.9184 75.1858 18.347 75.7572 17.6442 75.7572H16.1274C15.4246 75.7572 14.8533 75.1858 14.8533 74.483V43.8786C14.8533 43.1809 14.287 42.6146 13.5893 42.6146C12.8915 42.6146 12.3252 43.1809 12.3252 43.8786V74.483C12.3252 75.1858 11.7539 75.7572 11.0511 75.7572H9.53428C8.83149 75.7572 8.26015 75.1858 8.26015 74.483V39.136C8.26015 39.045 8.25004 38.9591 8.22982 38.8731V28.3919C8.22982 27.6942 7.66354 27.1279 6.9658 27.1279C6.26806 27.1279 5.70178 27.6942 5.70178 28.3919V41.1989C5.70178 41.8967 4.98888 42.6096 4.29114 42.6096C3.5934 42.6096 3.01701 42.0382 3.01701 41.3354V28.5284C3.01701 28.4475 3.0069 28.3666 2.99173 28.2908V23.0021C2.99173 20.7623 4.92315 18.9421 7.30456 18.9421H19.6818C22.0582 18.9421 23.9946 20.7623 23.9946 23.0021V28.5234V33.6553C23.9946 34.353 24.5609 34.9193 25.2587 34.9193H34.5062C35.209 34.9193 35.7803 35.4906 35.7803 36.1934C35.7803 36.8962 35.209 37.4675 34.5062 37.4675H22.7205C22.0177 37.4675 21.4464 36.8962 21.4464 36.1934V36.1985Z" fill="currentColor"/>
</g>
</g>
</svg>
