<svg xmlns="http://www.w3.org/2000/svg" width="192" height="35" viewBox="0 0 192 35" fill="none">
  <g clip-path="url(#clip0_3083_12553)">
    <path d="M14.1815 22.7683C9.70889 22.7683 6.01413 19.1087 6.01413 14.5708C6.01413 10.0329 9.66028 6.37331 14.1815 6.37331C18.7027 6.37331 19.4806 7.78835 20.8904 9.93532L25.1686 6.86125C22.7378 3.39683 18.7027 1.05469 14.1815 1.05469C6.74336 1.05469 0.763672 7.10523 0.763672 14.522C0.763672 21.9388 6.79197 27.9893 14.1815 27.9893C21.571 27.9893 22.8836 25.696 25.2658 22.134L20.8418 19.2551C19.3347 21.3533 16.904 22.7683 14.1815 22.7683Z" fill="#2F3677"/>
    <path d="M26.4805 28.0873H31.6823V12.9609L26.4805 14.6688V28.0873Z" fill="#2F3677"/>
    <path d="M44.177 8.91406C39.0578 8.91406 34.8721 12.9543 34.6679 18.0875H34.6484V18.4778V33.0674L39.4127 34.4825V26.768C40.8129 27.5731 42.4317 28.0416 44.177 28.0416C49.4761 28.0416 53.7056 23.7964 53.7056 18.4778C53.7056 13.1592 49.4761 8.91406 44.177 8.91406ZM43.9826 23.0645C41.4546 23.0645 39.4127 21.0151 39.4127 18.4778C39.4127 15.9405 41.4546 13.8911 43.9826 13.8911C46.5106 13.8911 48.5524 15.9405 48.5524 18.4778C48.5524 21.0151 46.5106 23.0645 43.9826 23.0645Z" fill="#2F3677"/>
    <path d="M88.9511 10.0921C87.551 9.28696 85.9321 8.81853 84.1868 8.81853C78.8877 8.81853 74.6582 13.0637 74.6582 18.3823C74.6582 23.7009 78.8877 27.946 84.1868 27.946C89.4859 27.946 93.4918 23.9058 93.696 18.7726H93.7154V1.93848L88.9511 0.523438V10.0921ZM84.3327 22.969C81.8047 22.969 79.7628 20.9196 79.7628 18.3823C79.7628 15.845 81.8047 13.7956 84.3327 13.7956C86.8606 13.7956 88.9025 15.845 88.9025 18.3823C88.9025 20.9196 86.8606 22.969 84.3327 22.969Z" fill="#2F3677"/>
    <path d="M73.2 17.4911V8.85938H68.4843V10.1817C67.0842 9.3766 65.4653 8.90817 63.72 8.90817C58.4696 8.90817 54.1914 13.1533 54.1914 18.4719C54.1914 23.7905 58.4209 28.0357 63.72 28.0357C65.4653 28.0357 67.0842 27.5672 68.4843 26.7621V27.7429H73.2V19.4527C73.234 19.1307 73.2486 18.8037 73.2486 18.4719C73.2486 18.1401 73.234 17.8132 73.2 17.4911ZM63.5742 23.0586C61.0462 23.0586 59.0043 21.0092 59.0043 18.4719C59.0043 15.9346 61.0462 13.8852 63.5742 13.8852C66.1022 13.8852 68.144 15.9346 68.144 18.4719C68.144 21.0092 66.1022 23.0586 63.5742 23.0586Z" fill="#2F3677"/>
    <path d="M26.4805 11.3034L31.6823 12.9624V8.22933L26.4805 6.57031V11.3034Z" fill="#2F3677"/>
    <path d="M177.396 3.53906H114.77C107.104 3.53906 100.871 9.79942 100.871 17.4895C100.871 25.1795 107.108 31.4545 114.77 31.4545H177.396C185.063 31.4545 191.296 25.1941 191.296 17.5041C191.296 9.81406 185.058 3.53906 177.396 3.53906ZM177.396 29.5076H114.77C108.168 29.5076 102.816 24.1353 102.816 17.509V17.4943C102.816 10.868 108.168 5.49573 114.77 5.49573H177.396C183.998 5.49573 189.351 10.868 189.351 17.4943V17.509C189.351 24.1353 183.998 29.5076 177.396 29.5076Z" fill="#2F3677"/>
    <path d="M118.708 19.0911H121.97V21.0185C121.086 21.404 120.001 21.5942 118.708 21.5942C115.791 21.5942 114.333 20.228 114.333 17.5004C114.333 16.2073 114.668 15.1973 115.344 14.48C116.02 13.7627 117.007 13.4016 118.31 13.4016C119.17 13.4016 119.861 13.5431 120.376 13.831C120.891 14.1189 121.266 14.5678 121.499 15.1875L124.566 14.8557C124.241 13.6993 123.57 12.7575 122.554 12.0305C121.538 11.3035 120.142 10.9375 118.378 10.9375C116.958 10.9375 115.709 11.1961 114.63 11.7182C113.55 12.2354 112.704 12.9869 112.102 13.9676C111.499 14.9484 111.197 16.1439 111.197 17.5541C111.197 18.9642 111.499 20.0865 112.097 21.0624C112.695 22.0383 113.555 22.78 114.678 23.2923C115.801 23.8046 117.153 24.0633 118.733 24.0633C119.895 24.0633 120.998 23.912 122.043 23.6192C123.089 23.3216 124.012 22.8971 124.814 22.3506V16.8221H118.713V19.096L118.708 19.0911Z" fill="#2F3677"/>
    <path d="M136.507 18.6404C136.507 19.631 136.254 20.3629 135.749 20.8264C135.243 21.29 134.455 21.5242 133.386 21.5242C132.316 21.5242 131.509 21.29 131.004 20.8264C130.498 20.3629 130.245 19.631 130.245 18.6404V11.2578H127.178V18.4306C127.178 20.3922 127.708 21.8219 128.763 22.7197C129.822 23.6175 131.359 24.0664 133.381 24.0664C135.403 24.0664 136.925 23.6175 137.985 22.7197C139.045 21.8219 139.57 20.3922 139.57 18.4306V11.2578H136.502V18.6404H136.507Z" fill="#2F3677"/>
    <path d="M145.471 18.538H152.632V16.2105H145.471V13.6H153.002V11.2578H142.438V23.7492H153.07L153.4 21.4071H145.471V18.538Z" fill="#2F3677"/>
    <path d="M166.182 17.6419C165.473 17.0368 164.34 16.6123 162.784 16.3635L160.169 15.9438C159.391 15.8267 158.851 15.6706 158.555 15.4705C158.258 15.2705 158.112 14.9728 158.112 14.5776C158.112 14.1335 158.36 13.7969 158.861 13.5627C159.362 13.3284 160.071 13.2113 160.99 13.2113C161.841 13.2113 162.497 13.3382 162.959 13.5968C163.426 13.8554 163.766 14.2751 163.99 14.8557L166.916 14.5239C166.649 13.2992 166.041 12.3965 165.093 11.8109C164.145 11.2254 162.808 10.9375 161.073 10.9375C159.201 10.9375 157.733 11.2644 156.668 11.9183C155.604 12.5721 155.074 13.4895 155.074 14.6654C155.074 15.7389 155.458 16.5782 156.226 17.1832C156.994 17.7883 158.224 18.2274 159.921 18.4958L162.133 18.8276C162.852 18.9301 163.372 19.1008 163.683 19.3253C163.999 19.5546 164.155 19.8572 164.155 20.2426C164.155 20.7452 163.902 21.1258 163.397 21.3893C162.891 21.6528 162.157 21.7845 161.19 21.7845C160.169 21.7845 159.381 21.6235 158.827 21.3015C158.273 20.9794 157.937 20.4866 157.806 19.823H154.738C155.03 22.6482 157.174 24.0584 161.17 24.0584C163.144 24.0584 164.651 23.7266 165.686 23.063C166.722 22.3994 167.237 21.4332 167.237 20.1743C167.237 19.0911 166.882 18.2421 166.173 17.637L166.182 17.6419Z" fill="#2F3677"/>
    <path d="M168.117 13.7951H172.911V23.7492H175.978V13.7951H180.772V11.2578H168.117V13.7951Z" fill="#2F3677"/>
  </g>
  <defs>
    <clipPath id="clip0_3083_12553">
      <rect width="191" height="35" fill="white" transform="translate(0.746094)"/>
    </clipPath>
  </defs>
</svg>