<svg width="24" height="24" viewBox="0 0 24 24" fill="none" xmlns="http://www.w3.org/2000/svg">
<path fill-rule="evenodd" clip-rule="evenodd" d="M12 1.5C12.4142 1.5 12.75 1.83579 12.75 2.25V4.5C12.75 4.91421 12.4142 5.25 12 5.25C11.5858 5.25 11.25 4.91421 11.25 4.5V2.25C11.25 1.83579 11.5858 1.5 12 1.5Z" fill="black"/>
<path fill-rule="evenodd" clip-rule="evenodd" d="M12 18.75C12.4142 18.75 12.75 19.0858 12.75 19.5V21.75C12.75 22.1642 12.4142 22.5 12 22.5C11.5858 22.5 11.25 22.1642 11.25 21.75V19.5C11.25 19.0858 11.5858 18.75 12 18.75Z" fill="black"/>
<path fill-rule="evenodd" clip-rule="evenodd" d="M19.425 4.57514C19.7179 4.86803 19.7179 5.34291 19.425 5.6358L17.834 7.22674C17.5411 7.51963 17.0663 7.51963 16.7734 7.22674C16.4805 6.93384 16.4805 6.45897 16.7734 6.16608L18.3643 4.57514C18.6572 4.28225 19.1321 4.28225 19.425 4.57514Z" fill="black"/>
<path fill-rule="evenodd" clip-rule="evenodd" d="M7.22674 16.7729C7.51963 17.0658 7.51963 17.5407 7.22674 17.8336L5.6358 19.4245C5.34291 19.7174 4.86803 19.7174 4.57514 19.4245C4.28225 19.1316 4.28225 18.6567 4.57514 18.3638L6.16608 16.7729C6.45897 16.48 6.93384 16.48 7.22674 16.7729Z" fill="black"/>
<path fill-rule="evenodd" clip-rule="evenodd" d="M18.75 12C18.75 11.5858 19.0858 11.25 19.5 11.25H21.75C22.1642 11.25 22.5 11.5858 22.5 12C22.5 12.4142 22.1642 12.75 21.75 12.75H19.5C19.0858 12.75 18.75 12.4142 18.75 12Z" fill="black"/>
<path fill-rule="evenodd" clip-rule="evenodd" d="M1.5 12C1.5 11.5858 1.83579 11.25 2.25 11.25H4.5C4.91421 11.25 5.25 11.5858 5.25 12C5.25 12.4142 4.91421 12.75 4.5 12.75H2.25C1.83579 12.75 1.5 12.4142 1.5 12Z" fill="black"/>
<path fill-rule="evenodd" clip-rule="evenodd" d="M16.7734 16.7729C17.0663 16.48 17.5411 16.48 17.834 16.7729L19.425 18.3638C19.7179 18.6567 19.7179 19.1316 19.425 19.4245C19.1321 19.7174 18.6572 19.7174 18.3643 19.4245L16.7734 17.8336C16.4805 17.5407 16.4805 17.0658 16.7734 16.7729Z" fill="black"/>
<path fill-rule="evenodd" clip-rule="evenodd" d="M4.57514 4.57514C4.86803 4.28225 5.34291 4.28225 5.6358 4.57514L7.22674 6.16608C7.51963 6.45897 7.51963 6.93384 7.22674 7.22674C6.93384 7.51963 6.45897 7.51963 6.16608 7.22674L4.57514 5.6358C4.28225 5.34291 4.28225 4.86803 4.57514 4.57514Z" fill="black"/>
<path fill-rule="evenodd" clip-rule="evenodd" d="M12 9C10.3431 9 9 10.3431 9 12C9 13.6569 10.3431 15 12 15C13.6569 15 15 13.6569 15 12C15 10.3431 13.6569 9 12 9ZM7.5 12C7.5 9.51472 9.51472 7.5 12 7.5C14.4853 7.5 16.5 9.51472 16.5 12C16.5 14.4853 14.4853 16.5 12 16.5C9.51472 16.5 7.5 14.4853 7.5 12Z" fill="black"/>
</svg>
