<svg width="242" height="45" viewBox="0 0 242 45" fill="none" xmlns="http://www.w3.org/2000/svg">
<g id="CIPAD_GUEST_&#231;&#153;&#189;_&#230;&#169;&#171;&#229;&#188;&#143;_&#230;&#150;&#135;&#229;&#173;&#151; 1" clip-path="url(#clip0_2270_30271)">
<path id="Vector" d="M17.5554 28.7971C11.9119 28.7971 7.24992 24.1965 7.24992 18.4917C7.24992 12.7869 11.8506 8.18626 17.5554 8.18626C23.2601 8.18626 24.2416 9.96518 26.0205 12.6642L31.4186 8.79968C28.3515 4.44441 23.2601 1.5 17.5554 1.5C8.17005 1.5 0.625 9.10639 0.625 18.4304C0.625 27.7543 8.23139 35.3607 17.5554 35.3607C26.8793 35.3607 28.5355 32.4776 31.5413 27.9997L25.9592 24.3805C24.0576 27.0182 20.9905 28.7971 17.5554 28.7971Z" fill="#7A82C1"/>
<path id="Vector_2" d="M33.0703 35.4847H39.6339V16.4688L33.0703 18.6157V35.4847Z" fill="#7A82C1"/>
<path id="Vector_3" d="M55.398 11.375C48.9387 11.375 43.6572 16.4541 43.3995 22.9073H43.375V23.398V41.7392L49.3865 43.5181V33.82C51.1531 34.8321 53.1958 35.421 55.398 35.421C62.0843 35.421 67.421 30.0843 67.421 23.398C67.421 16.7117 62.0843 11.375 55.398 11.375ZM55.1526 29.1641C51.9629 29.1641 49.3865 26.5878 49.3865 23.398C49.3865 20.2082 51.9629 17.6319 55.1526 17.6319C58.3424 17.6319 60.9188 20.2082 60.9188 23.398C60.9188 26.5878 58.3424 29.1641 55.1526 29.1641Z" fill="#7A82C1"/>
<path id="Vector_4" d="M111.894 12.8573C110.127 11.8451 108.085 11.2562 105.882 11.2562C99.1961 11.2562 93.8594 16.593 93.8594 23.2792C93.8594 29.9655 99.1961 35.3022 105.882 35.3022C112.569 35.3022 117.623 30.2231 117.881 23.77H117.905V2.60704L111.894 0.828125V12.8573ZM106.066 29.0454C102.877 29.0454 100.3 26.469 100.3 23.2792C100.3 20.0895 102.877 17.5131 106.066 17.5131C109.256 17.5131 111.833 20.0895 111.833 23.2792C111.833 26.469 109.256 29.0454 106.066 29.0454Z" fill="#7A82C1"/>
<path id="Vector_5" d="M92.0237 22.1639V11.3125H86.0736V12.9749C84.3069 11.9627 82.2642 11.3738 80.0621 11.3738C73.4371 11.3738 68.0391 16.7106 68.0391 23.3968C68.0391 30.0831 73.3758 35.4198 80.0621 35.4198C82.2642 35.4198 84.3069 34.831 86.0736 33.8188V35.0518H92.0237V24.6298C92.0667 24.225 92.0851 23.814 92.0851 23.3968C92.0851 22.9797 92.0667 22.5687 92.0237 22.1639ZM79.878 29.163C76.6883 29.163 74.1119 26.5866 74.1119 23.3968C74.1119 20.2071 76.6883 17.6307 79.878 17.6307C83.0678 17.6307 85.6442 20.2071 85.6442 23.3968C85.6442 26.5866 83.0678 29.163 79.878 29.163Z" fill="#7A82C1"/>
<path id="Vector_6" d="M33.0703 14.3798L39.6339 16.4655V10.5153L33.0703 8.42969V14.3798Z" fill="#7A82C1"/>
<path id="Vector_7" d="M223.496 4.625H144.475C134.802 4.625 126.938 12.4952 126.938 22.1626C126.938 31.8301 134.808 39.7187 144.475 39.7187H223.496C233.169 39.7187 241.033 31.8485 241.033 22.181C241.033 12.5136 233.163 4.625 223.496 4.625ZM223.496 37.2711H144.475C136.145 37.2711 129.391 30.5174 129.391 22.1872V22.1688C129.391 13.8385 136.145 7.08481 144.475 7.08481H223.496C231.826 7.08481 238.58 13.8385 238.58 22.1688V22.1872C238.58 30.5174 231.826 37.2711 223.496 37.2711Z" fill="#7A82C1"/>
<path id="Vector_8" d="M149.446 24.1721H153.562V26.5951C152.446 27.0797 151.078 27.3189 149.446 27.3189C145.766 27.3189 143.925 25.6014 143.925 22.1724C143.925 20.5468 144.349 19.277 145.201 18.3753C146.054 17.4736 147.299 17.0196 148.943 17.0196C150.029 17.0196 150.9 17.1975 151.55 17.5594C152.2 17.9214 152.673 18.4857 152.967 19.2647L156.838 18.8476C156.427 17.3938 155.58 16.2099 154.298 15.2959C153.016 14.3819 151.256 13.9219 149.029 13.9219C147.238 13.9219 145.661 14.247 144.299 14.9033C142.938 15.5536 141.87 16.4982 141.11 17.7312C140.349 18.9642 139.969 20.467 139.969 22.2398C139.969 24.0126 140.349 25.4235 141.104 26.6503C141.858 27.8771 142.944 28.8095 144.361 29.4536C145.778 30.0977 147.483 30.4228 149.477 30.4228C150.943 30.4228 152.335 30.2327 153.654 29.8646C154.973 29.4904 156.138 28.9568 157.151 28.2697V21.3197H149.452V24.1782L149.446 24.1721Z" fill="#7A82C1"/>
<path id="Vector_9" d="M171.904 23.6013C171.904 24.8466 171.585 25.7667 170.947 26.3495C170.309 26.9322 169.316 27.2266 167.966 27.2266C166.617 27.2266 165.598 26.9322 164.96 26.3495C164.322 25.7667 164.003 24.8466 164.003 23.6013V14.3203H160.133V23.3376C160.133 25.8035 160.801 27.6008 162.133 28.7295C163.47 29.8582 165.408 30.4225 167.96 30.4225C170.512 30.4225 172.432 29.8582 173.769 28.7295C175.106 27.6008 175.769 25.8035 175.769 23.3376V14.3203H171.898V23.6013H171.904Z" fill="#7A82C1"/>
<path id="Vector_10" d="M183.211 23.4725H192.246V20.5465H183.211V17.2647H192.712V14.3203H179.383V30.0238H192.798L193.215 27.0794H183.211V23.4725Z" fill="#7A82C1"/>
<path id="Vector_11" d="M209.346 22.3502C208.451 21.5896 207.021 21.0559 205.058 20.7431L201.758 20.2155C200.777 20.0683 200.096 19.872 199.722 19.6205C199.347 19.369 199.163 18.9948 199.163 18.498C199.163 17.9398 199.476 17.5165 200.108 17.2221C200.74 16.9276 201.635 16.7804 202.795 16.7804C203.868 16.7804 204.696 16.9399 205.279 17.265C205.868 17.5901 206.297 18.1177 206.58 18.8476L210.272 18.4305C209.935 16.8908 209.168 15.756 207.972 15.0199C206.776 14.2838 205.089 13.9219 202.899 13.9219C200.537 13.9219 198.685 14.3329 197.342 15.1548C195.998 15.9768 195.33 17.1301 195.33 18.6084C195.33 19.9579 195.814 21.013 196.783 21.7736C197.753 22.5343 199.304 23.0863 201.445 23.4237L204.236 23.8409C205.144 23.9697 205.801 24.1844 206.193 24.4665C206.592 24.7548 206.788 25.1352 206.788 25.6198C206.788 26.2516 206.469 26.7301 205.831 27.0613C205.193 27.3925 204.267 27.5582 203.046 27.5582C201.758 27.5582 200.764 27.3557 200.065 26.9509C199.366 26.546 198.943 25.9265 198.777 25.0922H194.906C195.274 28.6439 197.979 30.4167 203.022 30.4167C205.512 30.4167 207.414 29.9996 208.72 29.1653C210.027 28.3311 210.677 27.1165 210.677 25.5339C210.677 24.1721 210.229 23.1047 209.334 22.3441L209.346 22.3502Z" fill="#7A82C1"/>
<path id="Vector_12" d="M211.789 17.5101H217.837V30.0238H221.708V17.5101H227.756V14.3203H211.789V17.5101Z" fill="#7A82C1"/>
</g>
<defs>
<clipPath id="clip0_2270_30271">
<rect width="241" height="44" fill="white" transform="translate(0.601562 0.171875)"/>
</clipPath>
</defs>
</svg>
