<svg width="150" height="150" viewBox="0 0 150 150" fill="none" xmlns="http://www.w3.org/2000/svg">
<g id="QR Code" clip-path="url(#clip0_2854_35057)">
<path id="Vector" d="M150.352 0.828125H0.351562V150.828H150.352V0.828125Z" fill="#424451"/>
<g id="Vector_2">
<path d="M6.98499 3.04688H2.57422V7.45765H6.98499V3.04688Z" fill="#F4F2FD"/>
<path d="M11.3958 3.04688H6.98499V7.45765H11.3958V3.04688Z" fill="#F4F2FD"/>
<path d="M15.8065 3.04688H11.3958V7.45765H15.8065V3.04688Z" fill="#F4F2FD"/>
<path d="M20.2173 3.04688H15.8065V7.45765H20.2173V3.04688Z" fill="#F4F2FD"/>
<path d="M24.6281 3.04688H20.2173V7.45765H24.6281V3.04688Z" fill="#F4F2FD"/>
<path d="M29.0389 3.04688H24.6281V7.45765H29.0389V3.04688Z" fill="#F4F2FD"/>
<path d="M33.4496 3.04688H29.0389V7.45765H33.4496V3.04688Z" fill="#F4F2FD"/>
<path d="M42.2712 3.04688H37.8604V7.45765H42.2712V3.04688Z" fill="#F4F2FD"/>
<path d="M46.682 3.04688H42.2712V7.45765H46.682V3.04688Z" fill="#F4F2FD"/>
<path d="M59.9143 3.04688H55.5035V7.45765H59.9143V3.04688Z" fill="#F4F2FD"/>
<path d="M64.3251 3.04688H59.9143V7.45765H64.3251V3.04688Z" fill="#F4F2FD"/>
<path d="M73.1466 3.04688H68.7358V7.45765H73.1466V3.04688Z" fill="#F4F2FD"/>
<path d="M77.5574 3.04688H73.1466V7.45765H77.5574V3.04688Z" fill="#F4F2FD"/>
<path d="M81.9682 3.04688H77.5574V7.45765H81.9682V3.04688Z" fill="#F4F2FD"/>
<path d="M104.022 3.04688H99.6112V7.45765H104.022V3.04688Z" fill="#F4F2FD"/>
<path d="M112.844 3.04688H108.433V7.45765H112.844V3.04688Z" fill="#F4F2FD"/>
<path d="M121.665 3.04688H117.254V7.45765H121.665V3.04688Z" fill="#F4F2FD"/>
<path d="M126.076 3.04688H121.665V7.45765H126.076V3.04688Z" fill="#F4F2FD"/>
<path d="M130.487 3.04688H126.076V7.45765H130.487V3.04688Z" fill="#F4F2FD"/>
<path d="M134.897 3.04688H130.487V7.45765H134.897V3.04688Z" fill="#F4F2FD"/>
<path d="M139.308 3.04688H134.897V7.45765H139.308V3.04688Z" fill="#F4F2FD"/>
<path d="M143.719 3.04688H139.308V7.45765H143.719V3.04688Z" fill="#F4F2FD"/>
<path d="M148.13 3.04688H143.719V7.45765H148.13V3.04688Z" fill="#F4F2FD"/>
<path d="M6.98499 7.45765H2.57422V11.8684H6.98499V7.45765Z" fill="#F4F2FD"/>
<path d="M33.4496 7.45765H29.0389V11.8684H33.4496V7.45765Z" fill="#F4F2FD"/>
<path d="M46.682 7.45765H42.2712V11.8684H46.682V7.45765Z" fill="#F4F2FD"/>
<path d="M77.5574 7.45765H73.1466V11.8684H77.5574V7.45765Z" fill="#F4F2FD"/>
<path d="M86.3789 7.45765H81.9682V11.8684H86.3789V7.45765Z" fill="#F4F2FD"/>
<path d="M90.7897 7.45765H86.3789V11.8684H90.7897V7.45765Z" fill="#F4F2FD"/>
<path d="M104.022 7.45765H99.6112V11.8684H104.022V7.45765Z" fill="#F4F2FD"/>
<path d="M108.433 7.45765H104.022V11.8684H108.433V7.45765Z" fill="#F4F2FD"/>
<path d="M121.665 7.45765H117.254V11.8684H121.665V7.45765Z" fill="#F4F2FD"/>
<path d="M148.13 7.45765H143.719V11.8684H148.13V7.45765Z" fill="#F4F2FD"/>
<path d="M6.98499 11.8684H2.57422V16.2792H6.98499V11.8684Z" fill="#F4F2FD"/>
<path d="M15.8065 11.8684H11.3958V16.2792H15.8065V11.8684Z" fill="#F4F2FD"/>
<path d="M20.2173 11.8684H15.8065V16.2792H20.2173V11.8684Z" fill="#F4F2FD"/>
<path d="M24.6281 11.8684H20.2173V16.2792H24.6281V11.8684Z" fill="#F4F2FD"/>
<path d="M33.4496 11.8684H29.0389V16.2792H33.4496V11.8684Z" fill="#F4F2FD"/>
<path d="M51.0927 11.8684H46.682V16.2792H51.0927V11.8684Z" fill="#F4F2FD"/>
<path d="M59.9143 11.8684H55.5035V16.2792H59.9143V11.8684Z" fill="#F4F2FD"/>
<path d="M64.3251 11.8684H59.9143V16.2792H64.3251V11.8684Z" fill="#F4F2FD"/>
<path d="M68.7358 11.8684H64.3251V16.2792H68.7358V11.8684Z" fill="#F4F2FD"/>
<path d="M73.1466 11.8684H68.7358V16.2792H73.1466V11.8684Z" fill="#F4F2FD"/>
<path d="M77.5574 11.8684H73.1466V16.2792H77.5574V11.8684Z" fill="#F4F2FD"/>
<path d="M81.9682 11.8684H77.5574V16.2792H81.9682V11.8684Z" fill="#F4F2FD"/>
<path d="M86.3789 11.8684H81.9682V16.2792H86.3789V11.8684Z" fill="#F4F2FD"/>
<path d="M90.7897 11.8684H86.3789V16.2792H90.7897V11.8684Z" fill="#F4F2FD"/>
<path d="M95.2005 11.8684H90.7897V16.2792H95.2005V11.8684Z" fill="#F4F2FD"/>
<path d="M104.022 11.8684H99.6112V16.2792H104.022V11.8684Z" fill="#F4F2FD"/>
<path d="M121.665 11.8684H117.254V16.2792H121.665V11.8684Z" fill="#F4F2FD"/>
<path d="M130.487 11.8684H126.076V16.2792H130.487V11.8684Z" fill="#F4F2FD"/>
<path d="M134.897 11.8684H130.487V16.2792H134.897V11.8684Z" fill="#F4F2FD"/>
<path d="M139.308 11.8684H134.897V16.2792H139.308V11.8684Z" fill="#F4F2FD"/>
<path d="M148.13 11.8684H143.719V16.2792H148.13V11.8684Z" fill="#F4F2FD"/>
<path d="M6.98499 16.2792H2.57422V20.69H6.98499V16.2792Z" fill="#F4F2FD"/>
<path d="M15.8065 16.2792H11.3958V20.69H15.8065V16.2792Z" fill="#F4F2FD"/>
<path d="M20.2173 16.2792H15.8065V20.69H20.2173V16.2792Z" fill="#F4F2FD"/>
<path d="M24.6281 16.2792H20.2173V20.69H24.6281V16.2792Z" fill="#F4F2FD"/>
<path d="M33.4496 16.2792H29.0389V20.69H33.4496V16.2792Z" fill="#F4F2FD"/>
<path d="M42.2712 16.2792H37.8604V20.69H42.2712V16.2792Z" fill="#F4F2FD"/>
<path d="M55.5035 16.2792H51.0927V20.69H55.5035V16.2792Z" fill="#F4F2FD"/>
<path d="M59.9143 16.2792H55.5035V20.69H59.9143V16.2792Z" fill="#F4F2FD"/>
<path d="M68.7358 16.2792H64.3251V20.69H68.7358V16.2792Z" fill="#F4F2FD"/>
<path d="M81.9682 16.2792H77.5574V20.69H81.9682V16.2792Z" fill="#F4F2FD"/>
<path d="M121.665 16.2792H117.254V20.69H121.665V16.2792Z" fill="#F4F2FD"/>
<path d="M130.487 16.2792H126.076V20.69H130.487V16.2792Z" fill="#F4F2FD"/>
<path d="M134.897 16.2792H130.487V20.69H134.897V16.2792Z" fill="#F4F2FD"/>
<path d="M139.308 16.2792H134.897V20.69H139.308V16.2792Z" fill="#F4F2FD"/>
<path d="M148.13 16.2792H143.719V20.69H148.13V16.2792Z" fill="#F4F2FD"/>
<path d="M6.98499 20.69H2.57422V25.1007H6.98499V20.69Z" fill="#F4F2FD"/>
<path d="M15.8065 20.69H11.3958V25.1007H15.8065V20.69Z" fill="#F4F2FD"/>
<path d="M20.2173 20.69H15.8065V25.1007H20.2173V20.69Z" fill="#F4F2FD"/>
<path d="M24.6281 20.69H20.2173V25.1007H24.6281V20.69Z" fill="#F4F2FD"/>
<path d="M33.4496 20.69H29.0389V25.1007H33.4496V20.69Z" fill="#F4F2FD"/>
<path d="M46.682 20.69H42.2712V25.1007H46.682V20.69Z" fill="#F4F2FD"/>
<path d="M51.0927 20.69H46.682V25.1007H51.0927V20.69Z" fill="#F4F2FD"/>
<path d="M55.5035 20.69H51.0927V25.1007H55.5035V20.69Z" fill="#F4F2FD"/>
<path d="M59.9143 20.69H55.5035V25.1007H59.9143V20.69Z" fill="#F4F2FD"/>
<path d="M77.5574 20.69H73.1466V25.1007H77.5574V20.69Z" fill="#F4F2FD"/>
<path d="M81.9682 20.69H77.5574V25.1007H81.9682V20.69Z" fill="#F4F2FD"/>
<path d="M90.7897 20.69H86.3789V25.1007H90.7897V20.69Z" fill="#F4F2FD"/>
<path d="M99.6112 20.69H95.2005V25.1007H99.6112V20.69Z" fill="#F4F2FD"/>
<path d="M112.844 20.69H108.433V25.1007H112.844V20.69Z" fill="#F4F2FD"/>
<path d="M121.665 20.69H117.254V25.1007H121.665V20.69Z" fill="#F4F2FD"/>
<path d="M130.487 20.69H126.076V25.1007H130.487V20.69Z" fill="#F4F2FD"/>
<path d="M134.897 20.69H130.487V25.1007H134.897V20.69Z" fill="#F4F2FD"/>
<path d="M139.308 20.69H134.897V25.1007H139.308V20.69Z" fill="#F4F2FD"/>
<path d="M148.13 20.69H143.719V25.1007H148.13V20.69Z" fill="#F4F2FD"/>
<path d="M6.98499 25.1007H2.57422V29.5115H6.98499V25.1007Z" fill="#F4F2FD"/>
<path d="M33.4496 25.1007H29.0389V29.5115H33.4496V25.1007Z" fill="#F4F2FD"/>
<path d="M42.2712 25.1007H37.8604V29.5115H42.2712V25.1007Z" fill="#F4F2FD"/>
<path d="M59.9143 25.1007H55.5035V29.5115H59.9143V25.1007Z" fill="#F4F2FD"/>
<path d="M64.3251 25.1007H59.9143V29.5115H64.3251V25.1007Z" fill="#F4F2FD"/>
<path d="M68.7358 25.1007H64.3251V29.5115H68.7358V25.1007Z" fill="#F4F2FD"/>
<path d="M73.1466 25.1007H68.7358V29.5115H73.1466V25.1007Z" fill="#F4F2FD"/>
<path d="M90.7897 25.1007H86.3789V29.5115H90.7897V25.1007Z" fill="#F4F2FD"/>
<path d="M95.2005 25.1007H90.7897V29.5115H95.2005V25.1007Z" fill="#F4F2FD"/>
<path d="M112.844 25.1007H108.433V29.5115H112.844V25.1007Z" fill="#F4F2FD"/>
<path d="M121.665 25.1007H117.254V29.5115H121.665V25.1007Z" fill="#F4F2FD"/>
<path d="M148.13 25.1007H143.719V29.5115H148.13V25.1007Z" fill="#F4F2FD"/>
<path d="M6.98499 29.5115H2.57422V33.9223H6.98499V29.5115Z" fill="#F4F2FD"/>
<path d="M11.3958 29.5115H6.98499V33.9223H11.3958V29.5115Z" fill="#F4F2FD"/>
<path d="M15.8065 29.5115H11.3958V33.9223H15.8065V29.5115Z" fill="#F4F2FD"/>
<path d="M20.2173 29.5115H15.8065V33.9223H20.2173V29.5115Z" fill="#F4F2FD"/>
<path d="M24.6281 29.5115H20.2173V33.9223H24.6281V29.5115Z" fill="#F4F2FD"/>
<path d="M29.0389 29.5115H24.6281V33.9223H29.0389V29.5115Z" fill="#F4F2FD"/>
<path d="M33.4496 29.5115H29.0389V33.9223H33.4496V29.5115Z" fill="#F4F2FD"/>
<path d="M42.2712 29.5115H37.8604V33.9223H42.2712V29.5115Z" fill="#F4F2FD"/>
<path d="M51.0927 29.5115H46.682V33.9223H51.0927V29.5115Z" fill="#F4F2FD"/>
<path d="M59.9143 29.5115H55.5035V33.9223H59.9143V29.5115Z" fill="#F4F2FD"/>
<path d="M68.7358 29.5115H64.3251V33.9223H68.7358V29.5115Z" fill="#F4F2FD"/>
<path d="M77.5574 29.5115H73.1466V33.9223H77.5574V29.5115Z" fill="#F4F2FD"/>
<path d="M86.3789 29.5115H81.9682V33.9223H86.3789L86.3789 29.5115Z" fill="#F4F2FD"/>
<path d="M95.2005 29.5115H90.7897V33.9223H95.2005V29.5115Z" fill="#F4F2FD"/>
<path d="M104.022 29.5115H99.6112V33.9223H104.022V29.5115Z" fill="#F4F2FD"/>
<path d="M112.844 29.5115H108.433V33.9223H112.844V29.5115Z" fill="#F4F2FD"/>
<path d="M121.665 29.5115H117.254V33.9223H121.665V29.5115Z" fill="#F4F2FD"/>
<path d="M126.076 29.5115H121.665V33.9223H126.076V29.5115Z" fill="#F4F2FD"/>
<path d="M130.487 29.5115H126.076V33.9223H130.487V29.5115Z" fill="#F4F2FD"/>
<path d="M134.897 29.5115H130.487V33.9223H134.897V29.5115Z" fill="#F4F2FD"/>
<path d="M139.308 29.5115H134.897V33.9223H139.308V29.5115Z" fill="#F4F2FD"/>
<path d="M143.719 29.5115H139.308V33.9223H143.719V29.5115Z" fill="#F4F2FD"/>
<path d="M148.13 29.5115H143.719V33.9223H148.13V29.5115Z" fill="#F4F2FD"/>
<path d="M46.682 33.9223H42.2712V38.3331H46.682V33.9223Z" fill="#F4F2FD"/>
<path d="M59.9143 33.9223H55.5035V38.3331H59.9143V33.9223Z" fill="#F4F2FD"/>
<path d="M73.1466 33.9223H68.7358V38.3331H73.1466V33.9223Z" fill="#F4F2FD"/>
<path d="M77.5574 33.9223H73.1466V38.3331H77.5574V33.9223Z" fill="#F4F2FD"/>
<path d="M81.9682 33.9223H77.5574V38.3331H81.9682V33.9223Z" fill="#F4F2FD"/>
<path d="M86.3789 33.9223H81.9682V38.3331H86.3789V33.9223Z" fill="#F4F2FD"/>
<path d="M90.7897 33.9223H86.3789V38.3331H90.7897V33.9223Z" fill="#F4F2FD"/>
<path d="M95.2005 33.9223H90.7897V38.3331H95.2005V33.9223Z" fill="#F4F2FD"/>
<path d="M104.022 33.9223H99.6112V38.3331H104.022V33.9223Z" fill="#F4F2FD"/>
<path d="M29.0389 38.3331H24.6281V42.7438H29.0389V38.3331Z" fill="#F4F2FD"/>
<path d="M33.4496 38.3331H29.0389V42.7438H33.4496V38.3331Z" fill="#F4F2FD"/>
<path d="M42.2712 38.3331H37.8604V42.7438H42.2712V38.3331Z" fill="#F4F2FD"/>
<path d="M46.682 38.3331H42.2712V42.7438H46.682V38.3331Z" fill="#F4F2FD"/>
<path d="M55.5035 38.3331H51.0927V42.7438H55.5035V38.3331Z" fill="#F4F2FD"/>
<path d="M59.9143 38.3331H55.5035V42.7438H59.9143V38.3331Z" fill="#F4F2FD"/>
<path d="M64.3251 38.3331H59.9143V42.7438H64.3251V38.3331Z" fill="#F4F2FD"/>
<path d="M68.7358 38.3331H64.3251V42.7438H68.7358V38.3331Z" fill="#F4F2FD"/>
<path d="M73.1466 38.3331H68.7358V42.7438H73.1466V38.3331Z" fill="#F4F2FD"/>
<path d="M77.5574 38.3331H73.1466V42.7438H77.5574V38.3331Z" fill="#F4F2FD"/>
<path d="M86.3789 38.3331H81.9682V42.7438H86.3789V38.3331Z" fill="#F4F2FD"/>
<path d="M90.7897 38.3331H86.3789V42.7438H90.7897V38.3331Z" fill="#F4F2FD"/>
<path d="M104.022 38.3331H99.6112V42.7438H104.022V38.3331Z" fill="#F4F2FD"/>
<path d="M108.433 38.3331H104.022V42.7438H108.433V38.3331Z" fill="#F4F2FD"/>
<path d="M117.254 38.3331H112.844V42.7438H117.254V38.3331Z" fill="#F4F2FD"/>
<path d="M126.076 38.3331H121.665V42.7438H126.076V38.3331Z" fill="#F4F2FD"/>
<path d="M134.897 38.3331H130.487V42.7438H134.897V38.3331Z" fill="#F4F2FD"/>
<path d="M148.13 38.3331H143.719V42.7438H148.13V38.3331Z" fill="#F4F2FD"/>
<path d="M6.98499 42.7438H2.57422V47.1546H6.98499V42.7438Z" fill="#F4F2FD"/>
<path d="M11.3958 42.7438H6.98499V47.1546H11.3958V42.7438Z" fill="#F4F2FD"/>
<path d="M20.2173 42.7438H15.8065V47.1546H20.2173V42.7438Z" fill="#F4F2FD"/>
<path d="M29.0389 42.7438H24.6281V47.1546H29.0389V42.7438Z" fill="#F4F2FD"/>
<path d="M42.2712 42.7438H37.8604V47.1546H42.2712V42.7438Z" fill="#F4F2FD"/>
<path d="M46.682 42.7438H42.2712V47.1546H46.682V42.7438Z" fill="#F4F2FD"/>
<path d="M68.7358 42.7438H64.3251V47.1546H68.7358V42.7438Z" fill="#F4F2FD"/>
<path d="M73.1466 42.7438H68.7358V47.1546H73.1466V42.7438Z" fill="#F4F2FD"/>
<path d="M90.7897 42.7438H86.3789L86.3789 47.1546H90.7897V42.7438Z" fill="#F4F2FD"/>
<path d="M95.2005 42.7438H90.7897V47.1546H95.2005V42.7438Z" fill="#F4F2FD"/>
<path d="M104.022 42.7438H99.6112V47.1546H104.022V42.7438Z" fill="#F4F2FD"/>
<path d="M121.665 42.7438H117.254V47.1546H121.665V42.7438Z" fill="#F4F2FD"/>
<path d="M126.076 42.7438H121.665V47.1546H126.076V42.7438Z" fill="#F4F2FD"/>
<path d="M139.308 42.7438H134.897V47.1546H139.308V42.7438Z" fill="#F4F2FD"/>
<path d="M148.13 42.7438H143.719V47.1546H148.13V42.7438Z" fill="#F4F2FD"/>
<path d="M6.98499 47.1546H2.57422V51.5654H6.98499V47.1546Z" fill="#F4F2FD"/>
<path d="M11.3958 47.1546H6.98499V51.5654H11.3958V47.1546Z" fill="#F4F2FD"/>
<path d="M15.8065 47.1546H11.3958V51.5654H15.8065V47.1546Z" fill="#F4F2FD"/>
<path d="M20.2173 47.1546H15.8065V51.5654H20.2173V47.1546Z" fill="#F4F2FD"/>
<path d="M29.0389 47.1546H24.6281V51.5654H29.0389V47.1546Z" fill="#F4F2FD"/>
<path d="M33.4496 47.1546H29.0389V51.5654H33.4496V47.1546Z" fill="#F4F2FD"/>
<path d="M37.8604 47.1546H33.4496V51.5654H37.8604V47.1546Z" fill="#F4F2FD"/>
<path d="M42.2712 47.1546H37.8604V51.5654H42.2712V47.1546Z" fill="#F4F2FD"/>
<path d="M51.0927 47.1546H46.682V51.5654H51.0927V47.1546Z" fill="#F4F2FD"/>
<path d="M59.9143 47.1546H55.5035V51.5654H59.9143V47.1546Z" fill="#F4F2FD"/>
<path d="M64.3251 47.1546H59.9143V51.5654H64.3251V47.1546Z" fill="#F4F2FD"/>
<path d="M77.5574 47.1546H73.1466V51.5654H77.5574V47.1546Z" fill="#F4F2FD"/>
<path d="M86.3789 47.1546H81.9682V51.5654H86.3789L86.3789 47.1546Z" fill="#F4F2FD"/>
<path d="M95.2005 47.1546H90.7897V51.5654H95.2005V47.1546Z" fill="#F4F2FD"/>
<path d="M104.022 47.1546H99.6112V51.5654H104.022V47.1546Z" fill="#F4F2FD"/>
<path d="M108.433 47.1546H104.022V51.5654H108.433V47.1546Z" fill="#F4F2FD"/>
<path d="M112.844 47.1546H108.433V51.5654H112.844V47.1546Z" fill="#F4F2FD"/>
<path d="M117.254 47.1546H112.844V51.5654H117.254V47.1546Z" fill="#F4F2FD"/>
<path d="M126.076 47.1546H121.665V51.5654H126.076V47.1546Z" fill="#F4F2FD"/>
<path d="M130.487 47.1546H126.076V51.5654H130.487V47.1546Z" fill="#F4F2FD"/>
<path d="M139.308 47.1546H134.897V51.5654H139.308V47.1546Z" fill="#F4F2FD"/>
<path d="M6.98499 51.5654H2.57422V55.9762H6.98499V51.5654Z" fill="#F4F2FD"/>
<path d="M20.2173 51.5654H15.8065V55.9762H20.2173V51.5654Z" fill="#F4F2FD"/>
<path d="M29.0389 51.5654H24.6281V55.9762H29.0389V51.5654Z" fill="#F4F2FD"/>
<path d="M46.682 51.5654H42.2712V55.9762H46.682V51.5654Z" fill="#F4F2FD"/>
<path d="M55.5035 51.5654H51.0927V55.9762H55.5035V51.5654Z" fill="#F4F2FD"/>
<path d="M64.3251 51.5654H59.9143V55.9762H64.3251V51.5654Z" fill="#F4F2FD"/>
<path d="M68.7358 51.5654H64.3251V55.9762H68.7358V51.5654Z" fill="#F4F2FD"/>
<path d="M73.1466 51.5654H68.7358V55.9762H73.1466V51.5654Z" fill="#F4F2FD"/>
<path d="M77.5574 51.5654H73.1466V55.9762H77.5574V51.5654Z" fill="#F4F2FD"/>
<path d="M81.9682 51.5654H77.5574V55.9762H81.9682V51.5654Z" fill="#F4F2FD"/>
<path d="M95.2005 51.5654H90.7897V55.9762H95.2005V51.5654Z" fill="#F4F2FD"/>
<path d="M99.6112 51.5654H95.2005V55.9762H99.6112V51.5654Z" fill="#F4F2FD"/>
<path d="M104.022 51.5654H99.6112V55.9762H104.022V51.5654Z" fill="#F4F2FD"/>
<path d="M108.433 51.5654H104.022V55.9762H108.433V51.5654Z" fill="#F4F2FD"/>
<path d="M112.844 51.5654H108.433V55.9762H112.844V51.5654Z" fill="#F4F2FD"/>
<path d="M117.254 51.5654H112.844V55.9762H117.254V51.5654Z" fill="#F4F2FD"/>
<path d="M121.665 51.5654H117.254V55.9762H121.665V51.5654Z" fill="#F4F2FD"/>
<path d="M126.076 51.5654H121.665V55.9762H126.076V51.5654Z" fill="#F4F2FD"/>
<path d="M130.487 51.5654H126.076V55.9762H130.487V51.5654Z" fill="#F4F2FD"/>
<path d="M143.719 51.5654H139.308V55.9762H143.719V51.5654Z" fill="#F4F2FD"/>
<path d="M6.98499 55.9762H2.57422V60.3869H6.98499V55.9762Z" fill="#F4F2FD"/>
<path d="M15.8065 55.9762H11.3958V60.3869H15.8065V55.9762Z" fill="#F4F2FD"/>
<path d="M20.2173 55.9762H15.8065V60.3869H20.2173V55.9762Z" fill="#F4F2FD"/>
<path d="M33.4496 55.9762H29.0389V60.3869H33.4496V55.9762Z" fill="#F4F2FD"/>
<path d="M37.8604 55.9762H33.4496V60.3869H37.8604V55.9762Z" fill="#F4F2FD"/>
<path d="M46.682 55.9762H42.2712V60.3869H46.682V55.9762Z" fill="#F4F2FD"/>
<path d="M51.0927 55.9762H46.682V60.3869H51.0927V55.9762Z" fill="#F4F2FD"/>
<path d="M68.7358 55.9762H64.3251V60.3869H68.7358V55.9762Z" fill="#F4F2FD"/>
<path d="M77.5574 55.9762H73.1466V60.3869H77.5574V55.9762Z" fill="#F4F2FD"/>
<path d="M86.3789 55.9762H81.9682V60.3869H86.3789V55.9762Z" fill="#F4F2FD"/>
<path d="M90.7897 55.9762H86.3789V60.3869H90.7897V55.9762Z" fill="#F4F2FD"/>
<path d="M95.2005 55.9762H90.7897V60.3869H95.2005V55.9762Z" fill="#F4F2FD"/>
<path d="M99.6112 55.9762H95.2005V60.3869H99.6112V55.9762Z" fill="#F4F2FD"/>
<path d="M108.433 55.9762H104.022V60.3869H108.433V55.9762Z" fill="#F4F2FD"/>
<path d="M130.487 55.9762H126.076V60.3869H130.487V55.9762Z" fill="#F4F2FD"/>
<path d="M134.897 55.9762H130.487V60.3869H134.897V55.9762Z" fill="#F4F2FD"/>
<path d="M139.308 55.9762H134.897V60.3869H139.308V55.9762Z" fill="#F4F2FD"/>
<path d="M148.13 55.9762H143.719V60.3869H148.13V55.9762Z" fill="#F4F2FD"/>
<path d="M20.2173 60.3869H15.8065V64.7977H20.2173V60.3869Z" fill="#F4F2FD"/>
<path d="M24.6281 60.3869H20.2173V64.7977H24.6281V60.3869Z" fill="#F4F2FD"/>
<path d="M29.0389 60.3869H24.6281V64.7977H29.0389V60.3869Z" fill="#F4F2FD"/>
<path d="M42.2712 60.3869H37.8604V64.7977H42.2712V60.3869Z" fill="#F4F2FD"/>
<path d="M77.5574 60.3869H73.1466V64.7977H77.5574V60.3869Z" fill="#F4F2FD"/>
<path d="M81.9682 60.3869H77.5574V64.7977H81.9682V60.3869Z" fill="#F4F2FD"/>
<path d="M90.7897 60.3869H86.3789L86.3789 64.7977H90.7897V60.3869Z" fill="#F4F2FD"/>
<path d="M95.2005 60.3869H90.7897V64.7977H95.2005V60.3869Z" fill="#F4F2FD"/>
<path d="M104.022 60.3869H99.6112V64.7977H104.022V60.3869Z" fill="#F4F2FD"/>
<path d="M108.433 60.3869H104.022V64.7977H108.433V60.3869Z" fill="#F4F2FD"/>
<path d="M112.844 60.3869H108.433V64.7977H112.844V60.3869Z" fill="#F4F2FD"/>
<path d="M117.254 60.3869H112.844V64.7977H117.254V60.3869Z" fill="#F4F2FD"/>
<path d="M126.076 60.3869H121.665V64.7977H126.076V60.3869Z" fill="#F4F2FD"/>
<path d="M130.487 60.3869H126.076V64.7977H130.487V60.3869Z" fill="#F4F2FD"/>
<path d="M6.98499 64.7977H2.57422V69.2085H6.98499V64.7977Z" fill="#F4F2FD"/>
<path d="M15.8065 64.7977H11.3958V69.2085H15.8065V64.7977Z" fill="#F4F2FD"/>
<path d="M33.4496 64.7977H29.0389V69.2085H33.4496V64.7977Z" fill="#F4F2FD"/>
<path d="M37.8604 64.7977H33.4496V69.2085H37.8604V64.7977Z" fill="#F4F2FD"/>
<path d="M42.2712 64.7977H37.8604V69.2085H42.2712V64.7977Z" fill="#F4F2FD"/>
<path d="M55.5035 64.7977H51.0927V69.2085H55.5035V64.7977Z" fill="#F4F2FD"/>
<path d="M68.7358 64.7977H64.3251V69.2085H68.7358V64.7977Z" fill="#F4F2FD"/>
<path d="M77.5574 64.7977H73.1466V69.2085H77.5574V64.7977Z" fill="#F4F2FD"/>
<path d="M81.9682 64.7977H77.5574V69.2085H81.9682V64.7977Z" fill="#F4F2FD"/>
<path d="M86.3789 64.7977H81.9682V69.2085H86.3789L86.3789 64.7977Z" fill="#F4F2FD"/>
<path d="M99.6112 64.7977H95.2005V69.2085H99.6112V64.7977Z" fill="#F4F2FD"/>
<path d="M104.022 64.7977H99.6112V69.2085H104.022V64.7977Z" fill="#F4F2FD"/>
<path d="M108.433 64.7977H104.022V69.2085H108.433V64.7977Z" fill="#F4F2FD"/>
<path d="M117.254 64.7977H112.844V69.2085H117.254V64.7977Z" fill="#F4F2FD"/>
<path d="M121.665 64.7977H117.254V69.2085H121.665V64.7977Z" fill="#F4F2FD"/>
<path d="M126.076 64.7977H121.665V69.2085H126.076V64.7977Z" fill="#F4F2FD"/>
<path d="M134.897 64.7977H130.487V69.2085H134.897V64.7977Z" fill="#F4F2FD"/>
<path d="M139.308 64.7977H134.897V69.2085H139.308V64.7977Z" fill="#F4F2FD"/>
<path d="M148.13 64.7977H143.719V69.2085H148.13V64.7977Z" fill="#F4F2FD"/>
<path d="M6.98499 69.2085H2.57422V73.6193H6.98499V69.2085Z" fill="#F4F2FD"/>
<path d="M11.3958 69.2085H6.98499V73.6193H11.3958V69.2085Z" fill="#F4F2FD"/>
<path d="M20.2173 69.2085H15.8065V73.6193H20.2173V69.2085Z" fill="#F4F2FD"/>
<path d="M42.2712 69.2085H37.8604V73.6193H42.2712V69.2085Z" fill="#F4F2FD"/>
<path d="M59.9143 69.2085H55.5035V73.6193H59.9143V69.2085Z" fill="#F4F2FD"/>
<path d="M64.3251 69.2085H59.9143V73.6193H64.3251V69.2085Z" fill="#F4F2FD"/>
<path d="M73.1466 69.2085H68.7358V73.6193H73.1466V69.2085Z" fill="#F4F2FD"/>
<path d="M90.7897 69.2085H86.3789L86.3789 73.6193H90.7897V69.2085Z" fill="#F4F2FD"/>
<path d="M95.2005 69.2085H90.7897V73.6193H95.2005V69.2085Z" fill="#F4F2FD"/>
<path d="M99.6112 69.2085H95.2005V73.6193H99.6112V69.2085Z" fill="#F4F2FD"/>
<path d="M104.022 69.2085H99.6112V73.6193H104.022V69.2085Z" fill="#F4F2FD"/>
<path d="M112.844 69.2085H108.433V73.6193H112.844V69.2085Z" fill="#F4F2FD"/>
<path d="M130.487 69.2085H126.076V73.6193H130.487V69.2085Z" fill="#F4F2FD"/>
<path d="M134.897 69.2085H130.487V73.6193H134.897V69.2085Z" fill="#F4F2FD"/>
<path d="M143.719 69.2085H139.308V73.6193H143.719V69.2085Z" fill="#F4F2FD"/>
<path d="M11.3958 73.6193H6.98499V78.03H11.3958V73.6193Z" fill="#F4F2FD"/>
<path d="M24.6281 73.6193H20.2173V78.03H24.6281V73.6193Z" fill="#F4F2FD"/>
<path d="M33.4496 73.6193H29.0389V78.03H33.4496V73.6193Z" fill="#F4F2FD"/>
<path d="M46.682 73.6193H42.2712V78.03H46.682V73.6193Z" fill="#F4F2FD"/>
<path d="M51.0927 73.6193H46.682V78.03H51.0927V73.6193Z" fill="#F4F2FD"/>
<path d="M55.5035 73.6193H51.0927V78.03H55.5035V73.6193Z" fill="#F4F2FD"/>
<path d="M64.3251 73.6193H59.9143V78.03H64.3251V73.6193Z" fill="#F4F2FD"/>
<path d="M81.9682 73.6193H77.5574V78.03H81.9682V73.6193Z" fill="#F4F2FD"/>
<path d="M86.3789 73.6193H81.9682V78.03H86.3789L86.3789 73.6193Z" fill="#F4F2FD"/>
<path d="M90.7897 73.6193H86.3789L86.3789 78.03H90.7897V73.6193Z" fill="#F4F2FD"/>
<path d="M95.2005 73.6193H90.7897V78.03H95.2005V73.6193Z" fill="#F4F2FD"/>
<path d="M99.6112 73.6193H95.2005V78.03H99.6112V73.6193Z" fill="#F4F2FD"/>
<path d="M108.433 73.6193H104.022V78.03H108.433V73.6193Z" fill="#F4F2FD"/>
<path d="M112.844 73.6193H108.433V78.03H112.844V73.6193Z" fill="#F4F2FD"/>
<path d="M126.076 73.6193H121.665V78.03H126.076V73.6193Z" fill="#F4F2FD"/>
<path d="M130.487 73.6193H126.076V78.03H130.487V73.6193Z" fill="#F4F2FD"/>
<path d="M143.719 73.6193H139.308V78.03H143.719V73.6193Z" fill="#F4F2FD"/>
<path d="M148.13 73.6193H143.719V78.03H148.13V73.6193Z" fill="#F4F2FD"/>
<path d="M11.3958 78.03H6.98499V82.4408H11.3958V78.03Z" fill="#F4F2FD"/>
<path d="M15.8065 78.03H11.3958V82.4408H15.8065V78.03Z" fill="#F4F2FD"/>
<path d="M20.2173 78.03H15.8065V82.4408H20.2173V78.03Z" fill="#F4F2FD"/>
<path d="M24.6281 78.03H20.2173V82.4408H24.6281V78.03Z" fill="#F4F2FD"/>
<path d="M37.8604 78.03H33.4496V82.4408H37.8604V78.03Z" fill="#F4F2FD"/>
<path d="M51.0927 78.03H46.682V82.4408H51.0927V78.03Z" fill="#F4F2FD"/>
<path d="M55.5035 78.03H51.0927V82.4408H55.5035V78.03Z" fill="#F4F2FD"/>
<path d="M73.1466 78.03H68.7358V82.4408H73.1466V78.03Z" fill="#F4F2FD"/>
<path d="M77.5574 78.03H73.1466V82.4408H77.5574V78.03Z" fill="#F4F2FD"/>
<path d="M90.7897 78.03H86.3789L86.3789 82.4408H90.7897V78.03Z" fill="#F4F2FD"/>
<path d="M95.2005 78.03H90.7897V82.4408H95.2005V78.03Z" fill="#F4F2FD"/>
<path d="M99.6112 78.03H95.2005V82.4408H99.6112V78.03Z" fill="#F4F2FD"/>
<path d="M112.844 78.03H108.433V82.4408H112.844V78.03Z" fill="#F4F2FD"/>
<path d="M139.308 78.03H134.897V82.4408H139.308V78.03Z" fill="#F4F2FD"/>
<path d="M143.719 78.03H139.308V82.4408H143.719V78.03Z" fill="#F4F2FD"/>
<path d="M6.98499 82.4408H2.57422V86.8516H6.98499V82.4408Z" fill="#F4F2FD"/>
<path d="M29.0389 82.4408H24.6281V86.8516H29.0389V82.4408Z" fill="#F4F2FD"/>
<path d="M33.4496 82.4408H29.0389V86.8516H33.4496V82.4408Z" fill="#F4F2FD"/>
<path d="M37.8604 82.4408H33.4496V86.8516H37.8604V82.4408Z" fill="#F4F2FD"/>
<path d="M42.2712 82.4408H37.8604V86.8516H42.2712V82.4408Z" fill="#F4F2FD"/>
<path d="M81.9682 82.4408H77.5574V86.8516H81.9682V82.4408Z" fill="#F4F2FD"/>
<path d="M86.3789 82.4408H81.9682V86.8516H86.3789L86.3789 82.4408Z" fill="#F4F2FD"/>
<path d="M90.7897 82.4408H86.3789L86.3789 86.8516H90.7897V82.4408Z" fill="#F4F2FD"/>
<path d="M95.2005 82.4408H90.7897V86.8516H95.2005V82.4408Z" fill="#F4F2FD"/>
<path d="M99.6112 82.4408H95.2005V86.8516H99.6112V82.4408Z" fill="#F4F2FD"/>
<path d="M117.254 82.4408H112.844V86.8516H117.254V82.4408Z" fill="#F4F2FD"/>
<path d="M143.719 82.4408H139.308V86.8516H143.719V82.4408Z" fill="#F4F2FD"/>
<path d="M148.13 82.4408H143.719V86.8516H148.13V82.4408Z" fill="#F4F2FD"/>
<path d="M6.98499 86.8516H2.57422V91.2624H6.98499V86.8516Z" fill="#F4F2FD"/>
<path d="M15.8065 86.8516H11.3958V91.2624H15.8065V86.8516Z" fill="#F4F2FD"/>
<path d="M24.6281 86.8516L20.2173 86.8516V91.2624H24.6281V86.8516Z" fill="#F4F2FD"/>
<path d="M37.8604 86.8516H33.4496V91.2624H37.8604V86.8516Z" fill="#F4F2FD"/>
<path d="M42.2712 86.8516H37.8604V91.2624H42.2712V86.8516Z" fill="#F4F2FD"/>
<path d="M51.0927 86.8516H46.682V91.2624H51.0927V86.8516Z" fill="#F4F2FD"/>
<path d="M73.1466 86.8516H68.7358V91.2624H73.1466V86.8516Z" fill="#F4F2FD"/>
<path d="M77.5574 86.8516L73.1466 86.8516V91.2624H77.5574V86.8516Z" fill="#F4F2FD"/>
<path d="M90.7897 86.8516H86.3789L86.3789 91.2624H90.7897V86.8516Z" fill="#F4F2FD"/>
<path d="M95.2005 86.8516H90.7897V91.2624H95.2005V86.8516Z" fill="#F4F2FD"/>
<path d="M99.6112 86.8516H95.2005V91.2624H99.6112V86.8516Z" fill="#F4F2FD"/>
<path d="M112.844 86.8516L108.433 86.8516V91.2624H112.844V86.8516Z" fill="#F4F2FD"/>
<path d="M117.254 86.8516H112.844V91.2624H117.254V86.8516Z" fill="#F4F2FD"/>
<path d="M126.076 86.8516H121.665V91.2624H126.076V86.8516Z" fill="#F4F2FD"/>
<path d="M134.897 86.8516H130.487V91.2624H134.897V86.8516Z" fill="#F4F2FD"/>
<path d="M11.3958 91.2624H6.98499V95.6731H11.3958V91.2624Z" fill="#F4F2FD"/>
<path d="M15.8065 91.2624H11.3958V95.6731H15.8065V91.2624Z" fill="#F4F2FD"/>
<path d="M29.0389 91.2624H24.6281V95.6731H29.0389V91.2624Z" fill="#F4F2FD"/>
<path d="M33.4496 91.2624H29.0389V95.6731H33.4496V91.2624Z" fill="#F4F2FD"/>
<path d="M37.8604 91.2624H33.4496V95.6731H37.8604V91.2624Z" fill="#F4F2FD"/>
<path d="M46.682 91.2624H42.2712V95.6731H46.682V91.2624Z" fill="#F4F2FD"/>
<path d="M55.5035 91.2624H51.0927V95.6731H55.5035V91.2624Z" fill="#F4F2FD"/>
<path d="M68.7358 91.2624H64.3251V95.6731H68.7358V91.2624Z" fill="#F4F2FD"/>
<path d="M77.5574 91.2624H73.1466V95.6731H77.5574V91.2624Z" fill="#F4F2FD"/>
<path d="M86.3789 91.2624H81.9682V95.6731H86.3789L86.3789 91.2624Z" fill="#F4F2FD"/>
<path d="M90.7897 91.2624H86.3789L86.3789 95.6731H90.7897V91.2624Z" fill="#F4F2FD"/>
<path d="M99.6112 91.2624H95.2005V95.6731H99.6112V91.2624Z" fill="#F4F2FD"/>
<path d="M104.022 91.2624H99.6112V95.6731H104.022V91.2624Z" fill="#F4F2FD"/>
<path d="M112.844 91.2624H108.433V95.6731H112.844V91.2624Z" fill="#F4F2FD"/>
<path d="M126.076 91.2624H121.665V95.6731H126.076V91.2624Z" fill="#F4F2FD"/>
<path d="M134.897 91.2624H130.487V95.6731H134.897V91.2624Z" fill="#F4F2FD"/>
<path d="M11.3958 95.6731H6.98499V100.084H11.3958V95.6731Z" fill="#F4F2FD"/>
<path d="M20.2173 95.6731H15.8065V100.084H20.2173V95.6731Z" fill="#F4F2FD"/>
<path d="M24.6281 95.6731H20.2173V100.084H24.6281V95.6731Z" fill="#F4F2FD"/>
<path d="M29.0389 95.6731H24.6281V100.084H29.0389V95.6731Z" fill="#F4F2FD"/>
<path d="M37.8604 95.6731H33.4496V100.084H37.8604V95.6731Z" fill="#F4F2FD"/>
<path d="M42.2712 95.6731H37.8604V100.084H42.2712V95.6731Z" fill="#F4F2FD"/>
<path d="M51.0927 95.6731H46.682V100.084H51.0927V95.6731Z" fill="#F4F2FD"/>
<path d="M68.7358 95.6731H64.3251V100.084H68.7358V95.6731Z" fill="#F4F2FD"/>
<path d="M73.1466 95.6731H68.7358V100.084H73.1466V95.6731Z" fill="#F4F2FD"/>
<path d="M77.5574 95.6731H73.1466V100.084H77.5574V95.6731Z" fill="#F4F2FD"/>
<path d="M81.9682 95.6731H77.5574V100.084H81.9682V95.6731Z" fill="#F4F2FD"/>
<path d="M90.7897 95.6731H86.3789L86.3789 100.084H90.7897V95.6731Z" fill="#F4F2FD"/>
<path d="M99.6112 95.6731H95.2005V100.084H99.6112V95.6731Z" fill="#F4F2FD"/>
<path d="M108.433 95.6731H104.022V100.084H108.433V95.6731Z" fill="#F4F2FD"/>
<path d="M112.844 95.6731H108.433V100.084H112.844V95.6731Z" fill="#F4F2FD"/>
<path d="M121.665 95.6731H117.254V100.084H121.665V95.6731Z" fill="#F4F2FD"/>
<path d="M134.897 95.6731H130.487V100.084H134.897V95.6731Z" fill="#F4F2FD"/>
<path d="M143.719 95.6731H139.308V100.084H143.719V95.6731Z" fill="#F4F2FD"/>
<path d="M148.13 95.6731H143.719V100.084H148.13V95.6731Z" fill="#F4F2FD"/>
<path d="M6.98499 100.084H2.57422V104.495H6.98499V100.084Z" fill="#F4F2FD"/>
<path d="M11.3958 100.084H6.98499V104.495H11.3958V100.084Z" fill="#F4F2FD"/>
<path d="M24.6281 100.084H20.2173V104.495H24.6281V100.084Z" fill="#F4F2FD"/>
<path d="M33.4496 100.084H29.0389V104.495H33.4496V100.084Z" fill="#F4F2FD"/>
<path d="M37.8604 100.084H33.4496V104.495H37.8604V100.084Z" fill="#F4F2FD"/>
<path d="M51.0927 100.084H46.682V104.495H51.0927V100.084Z" fill="#F4F2FD"/>
<path d="M64.3251 100.084H59.9143V104.495H64.3251V100.084Z" fill="#F4F2FD"/>
<path d="M73.1466 100.084H68.7358V104.495H73.1466V100.084Z" fill="#F4F2FD"/>
<path d="M77.5574 100.084H73.1466V104.495H77.5574V100.084Z" fill="#F4F2FD"/>
<path d="M81.9682 100.084H77.5574V104.495H81.9682V100.084Z" fill="#F4F2FD"/>
<path d="M86.3789 100.084H81.9682V104.495H86.3789L86.3789 100.084Z" fill="#F4F2FD"/>
<path d="M95.2005 100.084H90.7897V104.495H95.2005V100.084Z" fill="#F4F2FD"/>
<path d="M99.6112 100.084H95.2005V104.495H99.6112V100.084Z" fill="#F4F2FD"/>
<path d="M104.022 100.084H99.6112V104.495H104.022V100.084Z" fill="#F4F2FD"/>
<path d="M117.254 100.084H112.844V104.495H117.254V100.084Z" fill="#F4F2FD"/>
<path d="M130.487 100.084H126.076V104.495H130.487V100.084Z" fill="#F4F2FD"/>
<path d="M6.98499 104.495H2.57422V108.905H6.98499V104.495Z" fill="#F4F2FD"/>
<path d="M11.3958 104.495H6.98499V108.905H11.3958V104.495Z" fill="#F4F2FD"/>
<path d="M15.8065 104.495H11.3958V108.905H15.8065V104.495Z" fill="#F4F2FD"/>
<path d="M20.2173 104.495H15.8065V108.905H20.2173V104.495Z" fill="#F4F2FD"/>
<path d="M29.0389 104.495H24.6281V108.905H29.0389V104.495Z" fill="#F4F2FD"/>
<path d="M64.3251 104.495H59.9143V108.905H64.3251V104.495Z" fill="#F4F2FD"/>
<path d="M68.7358 104.495H64.3251V108.905H68.7358V104.495Z" fill="#F4F2FD"/>
<path d="M81.9682 104.495H77.5574V108.905H81.9682V104.495Z" fill="#F4F2FD"/>
<path d="M90.7897 104.495H86.3789L86.3789 108.905H90.7897V104.495Z" fill="#F4F2FD"/>
<path d="M117.254 104.495H112.844V108.905H117.254V104.495Z" fill="#F4F2FD"/>
<path d="M134.897 104.495H130.487V108.905H134.897V104.495Z" fill="#F4F2FD"/>
<path d="M139.308 104.495H134.897V108.905H139.308V104.495Z" fill="#F4F2FD"/>
<path d="M148.13 104.495H143.719V108.905H148.13V104.495Z" fill="#F4F2FD"/>
<path d="M11.3958 108.905H6.98499V113.316H11.3958V108.905Z" fill="#F4F2FD"/>
<path d="M33.4496 108.905H29.0389V113.316H33.4496V108.905Z" fill="#F4F2FD"/>
<path d="M37.8604 108.905H33.4496V113.316H37.8604V108.905Z" fill="#F4F2FD"/>
<path d="M42.2712 108.905H37.8604V113.316H42.2712V108.905Z" fill="#F4F2FD"/>
<path d="M46.682 108.905H42.2712V113.316H46.682V108.905Z" fill="#F4F2FD"/>
<path d="M51.0927 108.905H46.682V113.316H51.0927V108.905Z" fill="#F4F2FD"/>
<path d="M55.5035 108.905H51.0927V113.316H55.5035V108.905Z" fill="#F4F2FD"/>
<path d="M59.9143 108.905H55.5035V113.316H59.9143V108.905Z" fill="#F4F2FD"/>
<path d="M68.7358 108.905H64.3251V113.316H68.7358V108.905Z" fill="#F4F2FD"/>
<path d="M77.5574 108.905H73.1466V113.316H77.5574V108.905Z" fill="#F4F2FD"/>
<path d="M81.9682 108.905H77.5574V113.316H81.9682V108.905Z" fill="#F4F2FD"/>
<path d="M108.433 108.905H104.022V113.316H108.433V108.905Z" fill="#F4F2FD"/>
<path d="M112.844 108.905H108.433V113.316H112.844V108.905Z" fill="#F4F2FD"/>
<path d="M117.254 108.905H112.844V113.316H117.254V108.905Z" fill="#F4F2FD"/>
<path d="M121.665 108.905H117.254V113.316H121.665V108.905Z" fill="#F4F2FD"/>
<path d="M126.076 108.905H121.665V113.316H126.076V108.905Z" fill="#F4F2FD"/>
<path d="M130.487 108.905H126.076V113.316H130.487V108.905Z" fill="#F4F2FD"/>
<path d="M139.308 108.905H134.897V113.316H139.308V108.905Z" fill="#F4F2FD"/>
<path d="M143.719 108.905H139.308V113.316H143.719V108.905Z" fill="#F4F2FD"/>
<path d="M148.13 108.905H143.719V113.316H148.13V108.905Z" fill="#F4F2FD"/>
<path d="M42.2712 113.316H37.8604V117.727H42.2712V113.316Z" fill="#F4F2FD"/>
<path d="M46.682 113.316H42.2712V117.727H46.682V113.316Z" fill="#F4F2FD"/>
<path d="M64.3251 113.316H59.9143V117.727H64.3251V113.316Z" fill="#F4F2FD"/>
<path d="M68.7358 113.316H64.3251V117.727H68.7358V113.316Z" fill="#F4F2FD"/>
<path d="M81.9682 113.316H77.5574V117.727H81.9682V113.316Z" fill="#F4F2FD"/>
<path d="M90.7897 113.316H86.3789V117.727H90.7897V113.316Z" fill="#F4F2FD"/>
<path d="M112.844 113.316H108.433V117.727H112.844V113.316Z" fill="#F4F2FD"/>
<path d="M130.487 113.316H126.076V117.727H130.487V113.316Z" fill="#F4F2FD"/>
<path d="M139.308 113.316H134.897V117.727H139.308V113.316Z" fill="#F4F2FD"/>
<path d="M6.98499 117.727H2.57422V122.138H6.98499V117.727Z" fill="#F4F2FD"/>
<path d="M11.3958 117.727H6.98499V122.138H11.3958V117.727Z" fill="#F4F2FD"/>
<path d="M15.8065 117.727H11.3958V122.138H15.8065V117.727Z" fill="#F4F2FD"/>
<path d="M20.2173 117.727H15.8065V122.138H20.2173V117.727Z" fill="#F4F2FD"/>
<path d="M24.6281 117.727H20.2173V122.138H24.6281V117.727Z" fill="#F4F2FD"/>
<path d="M29.0389 117.727H24.6281V122.138H29.0389V117.727Z" fill="#F4F2FD"/>
<path d="M33.4496 117.727H29.0389V122.138H33.4496V117.727Z" fill="#F4F2FD"/>
<path d="M46.682 117.727H42.2712V122.138H46.682V117.727Z" fill="#F4F2FD"/>
<path d="M59.9143 117.727H55.5035V122.138H59.9143V117.727Z" fill="#F4F2FD"/>
<path d="M64.3251 117.727H59.9143V122.138H64.3251V117.727Z" fill="#F4F2FD"/>
<path d="M68.7358 117.727H64.3251V122.138H68.7358V117.727Z" fill="#F4F2FD"/>
<path d="M73.1466 117.727H68.7358V122.138H73.1466V117.727Z" fill="#F4F2FD"/>
<path d="M77.5574 117.727H73.1466V122.138H77.5574V117.727Z" fill="#F4F2FD"/>
<path d="M86.3789 117.727H81.9682V122.138H86.3789L86.3789 117.727Z" fill="#F4F2FD"/>
<path d="M99.6112 117.727H95.2005V122.138H99.6112V117.727Z" fill="#F4F2FD"/>
<path d="M104.022 117.727H99.6112V122.138H104.022V117.727Z" fill="#F4F2FD"/>
<path d="M112.844 117.727H108.433V122.138H112.844V117.727Z" fill="#F4F2FD"/>
<path d="M121.665 117.727H117.254V122.138H121.665V117.727Z" fill="#F4F2FD"/>
<path d="M130.487 117.727H126.076V122.138H130.487V117.727Z" fill="#F4F2FD"/>
<path d="M134.897 117.727H130.487V122.138H134.897V117.727Z" fill="#F4F2FD"/>
<path d="M6.98499 122.138H2.57422V126.549H6.98499V122.138Z" fill="#F4F2FD"/>
<path d="M33.4496 122.138H29.0389V126.549H33.4496V122.138Z" fill="#F4F2FD"/>
<path d="M42.2712 122.138H37.8604V126.549H42.2712V122.138Z" fill="#F4F2FD"/>
<path d="M46.682 122.138H42.2712V126.549H46.682V122.138Z" fill="#F4F2FD"/>
<path d="M51.0927 122.138H46.682V126.549H51.0927V122.138Z" fill="#F4F2FD"/>
<path d="M64.3251 122.138H59.9143V126.549H64.3251V122.138Z" fill="#F4F2FD"/>
<path d="M81.9682 122.138H77.5574V126.549H81.9682V122.138Z" fill="#F4F2FD"/>
<path d="M90.7897 122.138H86.3789L86.3789 126.549H90.7897V122.138Z" fill="#F4F2FD"/>
<path d="M104.022 122.138H99.6112V126.549H104.022V122.138Z" fill="#F4F2FD"/>
<path d="M108.433 122.138H104.022V126.549H108.433V122.138Z" fill="#F4F2FD"/>
<path d="M112.844 122.138H108.433V126.549H112.844V122.138Z" fill="#F4F2FD"/>
<path d="M130.487 122.138H126.076V126.549H130.487V122.138Z" fill="#F4F2FD"/>
<path d="M6.98499 126.549H2.57422V130.959H6.98499V126.549Z" fill="#F4F2FD"/>
<path d="M15.8065 126.549H11.3958V130.959H15.8065V126.549Z" fill="#F4F2FD"/>
<path d="M20.2173 126.549H15.8065V130.959H20.2173V126.549Z" fill="#F4F2FD"/>
<path d="M24.6281 126.549H20.2173V130.959H24.6281V126.549Z" fill="#F4F2FD"/>
<path d="M33.4496 126.549H29.0389V130.959H33.4496V126.549Z" fill="#F4F2FD"/>
<path d="M51.0927 126.549H46.682V130.959H51.0927V126.549Z" fill="#F4F2FD"/>
<path d="M55.5035 126.549H51.0927V130.959H55.5035V126.549Z" fill="#F4F2FD"/>
<path d="M64.3251 126.549H59.9143V130.959H64.3251V126.549Z" fill="#F4F2FD"/>
<path d="M68.7358 126.549H64.3251V130.959H68.7358V126.549Z" fill="#F4F2FD"/>
<path d="M73.1466 126.549H68.7358V130.959H73.1466V126.549Z" fill="#F4F2FD"/>
<path d="M77.5574 126.549H73.1466V130.959H77.5574V126.549Z" fill="#F4F2FD"/>
<path d="M108.433 126.549H104.022V130.959H108.433V126.549Z" fill="#F4F2FD"/>
<path d="M112.844 126.549H108.433V130.959H112.844V126.549Z" fill="#F4F2FD"/>
<path d="M117.254 126.549H112.844V130.959H117.254V126.549Z" fill="#F4F2FD"/>
<path d="M121.665 126.549H117.254V130.959H121.665V126.549Z" fill="#F4F2FD"/>
<path d="M126.076 126.549H121.665V130.959H126.076V126.549Z" fill="#F4F2FD"/>
<path d="M130.487 126.549H126.076V130.959H130.487V126.549Z" fill="#F4F2FD"/>
<path d="M134.897 126.549H130.487V130.959H134.897V126.549Z" fill="#F4F2FD"/>
<path d="M139.308 126.549H134.897V130.959H139.308V126.549Z" fill="#F4F2FD"/>
<path d="M148.13 126.549H143.719V130.959H148.13V126.549Z" fill="#F4F2FD"/>
<path d="M6.98499 130.959H2.57422V135.37H6.98499V130.959Z" fill="#F4F2FD"/>
<path d="M15.8065 130.959H11.3958V135.37H15.8065V130.959Z" fill="#F4F2FD"/>
<path d="M20.2173 130.959H15.8065V135.37H20.2173V130.959Z" fill="#F4F2FD"/>
<path d="M24.6281 130.959H20.2173V135.37H24.6281V130.959Z" fill="#F4F2FD"/>
<path d="M33.4496 130.959H29.0389V135.37H33.4496V130.959Z" fill="#F4F2FD"/>
<path d="M55.5035 130.959H51.0927V135.37H55.5035V130.959Z" fill="#F4F2FD"/>
<path d="M59.9143 130.959H55.5035V135.37H59.9143V130.959Z" fill="#F4F2FD"/>
<path d="M77.5574 130.959H73.1466V135.37H77.5574V130.959Z" fill="#F4F2FD"/>
<path d="M81.9682 130.959H77.5574V135.37H81.9682V130.959Z" fill="#F4F2FD"/>
<path d="M108.433 130.959H104.022V135.37H108.433V130.959Z" fill="#F4F2FD"/>
<path d="M117.254 130.959H112.844V135.37H117.254V130.959Z" fill="#F4F2FD"/>
<path d="M121.665 130.959H117.254V135.37H121.665V130.959Z" fill="#F4F2FD"/>
<path d="M130.487 130.959H126.076V135.37H130.487V130.959Z" fill="#F4F2FD"/>
<path d="M139.308 130.959H134.897V135.37H139.308V130.959Z" fill="#F4F2FD"/>
<path d="M148.13 130.959H143.719V135.37H148.13V130.959Z" fill="#F4F2FD"/>
<path d="M6.98499 135.37H2.57422V139.781H6.98499V135.37Z" fill="#F4F2FD"/>
<path d="M15.8065 135.37H11.3958V139.781H15.8065V135.37Z" fill="#F4F2FD"/>
<path d="M20.2173 135.37H15.8065V139.781H20.2173V135.37Z" fill="#F4F2FD"/>
<path d="M24.6281 135.37H20.2173V139.781H24.6281V135.37Z" fill="#F4F2FD"/>
<path d="M33.4496 135.37H29.0389V139.781H33.4496V135.37Z" fill="#F4F2FD"/>
<path d="M51.0927 135.37H46.682V139.781H51.0927V135.37Z" fill="#F4F2FD"/>
<path d="M68.7358 135.37H64.3251V139.781H68.7358V135.37Z" fill="#F4F2FD"/>
<path d="M86.3789 135.37H81.9682V139.781H86.3789V135.37Z" fill="#F4F2FD"/>
<path d="M104.022 135.37H99.6112V139.781H104.022V135.37Z" fill="#F4F2FD"/>
<path d="M121.665 135.37H117.254V139.781H121.665V135.37Z" fill="#F4F2FD"/>
<path d="M139.308 135.37H134.897V139.781H139.308V135.37Z" fill="#F4F2FD"/>
<path d="M6.98499 139.781H2.57422V144.192H6.98499V139.781Z" fill="#F4F2FD"/>
<path d="M33.4496 139.781H29.0389V144.192H33.4496V139.781Z" fill="#F4F2FD"/>
<path d="M46.682 139.781H42.2712V144.192H46.682V139.781Z" fill="#F4F2FD"/>
<path d="M55.5035 139.781H51.0927V144.192H55.5035V139.781Z" fill="#F4F2FD"/>
<path d="M59.9143 139.781H55.5035V144.192H59.9143V139.781Z" fill="#F4F2FD"/>
<path d="M64.3251 139.781H59.9143V144.192H64.3251V139.781Z" fill="#F4F2FD"/>
<path d="M68.7358 139.781H64.3251V144.192H68.7358V139.781Z" fill="#F4F2FD"/>
<path d="M73.1466 139.781H68.7358V144.192H73.1466V139.781Z" fill="#F4F2FD"/>
<path d="M77.5574 139.781H73.1466V144.192H77.5574V139.781Z" fill="#F4F2FD"/>
<path d="M81.9682 139.781H77.5574V144.192H81.9682V139.781Z" fill="#F4F2FD"/>
<path d="M86.3789 139.781H81.9682V144.192H86.3789V139.781Z" fill="#F4F2FD"/>
<path d="M90.7897 139.781H86.3789V144.192H90.7897V139.781Z" fill="#F4F2FD"/>
<path d="M95.2005 139.781H90.7897V144.192H95.2005V139.781Z" fill="#F4F2FD"/>
<path d="M99.6112 139.781H95.2005V144.192H99.6112V139.781Z" fill="#F4F2FD"/>
<path d="M126.076 139.781H121.665V144.192H126.076V139.781Z" fill="#F4F2FD"/>
<path d="M134.897 139.781H130.487V144.192H134.897V139.781Z" fill="#F4F2FD"/>
<path d="M148.13 139.781H143.719V144.192H148.13V139.781Z" fill="#F4F2FD"/>
<path d="M6.98499 144.192H2.57422V148.602H6.98499V144.192Z" fill="#F4F2FD"/>
<path d="M11.3958 144.192H6.98499V148.602H11.3958V144.192Z" fill="#F4F2FD"/>
<path d="M15.8065 144.192H11.3958V148.602H15.8065V144.192Z" fill="#F4F2FD"/>
<path d="M20.2173 144.192H15.8065V148.602H20.2173V144.192Z" fill="#F4F2FD"/>
<path d="M24.6281 144.192H20.2173V148.602H24.6281V144.192Z" fill="#F4F2FD"/>
<path d="M29.0389 144.192H24.6281V148.602H29.0389V144.192Z" fill="#F4F2FD"/>
<path d="M33.4496 144.192H29.0389V148.602H33.4496V144.192Z" fill="#F4F2FD"/>
<path d="M46.682 144.192H42.2712V148.602H46.682V144.192Z" fill="#F4F2FD"/>
<path d="M51.0927 144.192H46.682V148.602H51.0927V144.192Z" fill="#F4F2FD"/>
<path d="M55.5035 144.192H51.0927V148.602H55.5035V144.192Z" fill="#F4F2FD"/>
<path d="M59.9143 144.192H55.5035V148.602H59.9143V144.192Z" fill="#F4F2FD"/>
<path d="M64.3251 144.192H59.9143V148.602H64.3251V144.192Z" fill="#F4F2FD"/>
<path d="M86.3789 144.192H81.9682V148.602H86.3789V144.192Z" fill="#F4F2FD"/>
<path d="M95.2005 144.192H90.7897V148.602H95.2005V144.192Z" fill="#F4F2FD"/>
<path d="M99.6112 144.192H95.2005V148.602H99.6112V144.192Z" fill="#F4F2FD"/>
<path d="M104.022 144.192H99.6112V148.602H104.022V144.192Z" fill="#F4F2FD"/>
<path d="M117.254 144.192H112.844V148.602H117.254V144.192Z" fill="#F4F2FD"/>
<path d="M139.308 144.192H134.897V148.602H139.308V144.192Z" fill="#F4F2FD"/>
</g>
</g>
<defs>
<clipPath id="clip0_2854_35057">
<rect width="150" height="150" fill="white" transform="translate(0.351562 0.828125)"/>
</clipPath>
</defs>
</svg>
